<?xml version="1.0" standalone="no"?>
<!DOCTYPE svg PUBLIC "-//W3C//DTD SVG 20010904//EN"
 "http://www.w3.org/TR/2001/REC-SVG-20010904/DTD/svg10.dtd">
<svg version="1.0" xmlns="http://www.w3.org/2000/svg"
 width="280.000000pt" height="280.000000pt" viewBox="0 0 280.000000 280.000000"
 preserveAspectRatio="xMidYMid meet">
<metadata>
Created by potrace 1.15, written by Peter Selinger 2001-2017
</metadata>
<g transform="translate(0.000000,280.000000) scale(0.100000,-0.100000)"
fill="#000000" stroke="none">
<path d="M1755 2047 c-149 -39 -240 -136 -266 -285 -23 -132 27 -269 126 -344
28 -21 125 -77 218 -124 184 -95 207 -115 207 -184 0 -83 -66 -130 -182 -130
-80 0 -133 26 -198 97 l-50 55 -98 -57 c-53 -31 -99 -59 -101 -61 -9 -8 52
-94 97 -136 119 -111 304 -160 472 -124 143 30 238 99 289 206 36 76 36 215 1
305 -40 102 -107 159 -294 249 -86 42 -172 88 -191 102 -87 66 -56 190 52 210
55 10 107 -11 152 -62 l40 -45 93 62 c51 34 95 63 97 65 8 7 -54 87 -97 125
-24 21 -69 48 -100 59 -70 27 -199 34 -267 17z"/>
<path d="M1008 1553 c-3 -542 -3 -539 -69 -562 -77 -27 -143 -5 -195 66 -15
21 -31 42 -35 46 -5 7 -183 -95 -208 -119 -8 -7 62 -105 101 -140 86 -77 226
-114 353 -94 90 14 143 38 199 90 64 59 95 128 106 236 11 98 14 923 4 948 -5
13 -26 16 -130 16 l-123 0 -3 -487z"/>
</g>
</svg>
